<?xml version="1.0" encoding="UTF-8" standalone="no"?><!DOCTYPE svg PUBLIC "-//W3C//DTD SVG 1.1//EN" "http://www.w3.org/Graphics/SVG/1.1/DTD/svg11.dtd"><svg width="100%" height="100%" viewBox="0 0 5100 3300" version="1.1" xmlns="http://www.w3.org/2000/svg" xmlns:xlink="http://www.w3.org/1999/xlink" xml:space="preserve" xmlns:serif="http://www.serif.com/" style="fill-rule:evenodd;clip-rule:evenodd;stroke-linejoin:round;stroke-miterlimit:2;"><g><path d="M2491.5,265l0,1672.5l-1468.052,801.299c-134.15,-245.775 -204.448,-521.297 -204.448,-801.299c0,-923.696 748.804,-1672.5 1672.5,-1672.5Z" style="fill:#f900ff;"/><path d="M2746.5,265l0,1672.5l1468.052,801.299c134.15,-245.775 204.448,-521.297 204.448,-801.299c0,-923.696 -748.804,-1672.5 -1672.5,-1672.5Z" style="fill:#f900ff;"/><path d="M2754.5,520l0,1417.5l1237.201,679.128c113.055,-208.302 172.299,-441.816 172.299,-679.128c0,-782.864 -631.055,-1417.5 -1409.5,-1417.5Z" style="fill:#fff;"/><path d="M2486.5,520l0,1417.5l-1236.323,679.128c-112.975,-208.302 -172.177,-441.816 -172.177,-679.128c0,-782.864 630.607,-1417.5 1408.5,-1417.5Z" style="fill:#fff;"/><path d="M3454.031,1319l109.09,257l-1843.151,0l-109.09,-257l1843.151,0Z" style="fill:#ff004c;"/><rect x="2236.5" y="474" width="255" height="1480" style="fill:#f900ff;"/><path d="M1058.681,2426.995l1312.923,-698.093l119.715,225.152l-1312.923,698.093l-119.715,-225.152Z" style="fill:#f900ff;"/><path d="M4181.319,2426.995l-1314.923,-699.157l-119.715,225.152l1314.923,699.157l119.715,-225.152Z" style="fill:#f900ff;"/><path d="M3417.514,1319.309l277.012,-2.38l-603.226,1455.761l-277.012,2.38l603.226,-1455.761Z" style="fill:#ff004c;"/><path d="M2480.761,2774.142l-277.011,-2.417l-602.211,-1453.866l277.011,2.417l602.211,1453.866Z" style="fill:#ff004c;"/><path d="M2420.044,2627.283l128.696,312.409l-518.825,-174.714l-128.696,-312.409l518.825,174.714Z" style="fill:#ff004c;"/><path d="M2874.915,2627.283l-128.696,312.409l518.825,-174.714l128.696,-312.409l-518.825,174.714Z" style="fill:#ff004c;"/><rect x="2746.5" y="474" width="255" height="1478" style="fill:#f900ff;"/></g></svg>